<?xml version="1.0" encoding="iso-8859-1"?>
<!-- Uploaded to: SVG Repo, www.svgrepo.com, Generator: SVG Repo Mixer Tools -->
<svg fill="#000000" height="800px" width="800px" version="1.1" id="Layer_1" xmlns="http://www.w3.org/2000/svg" xmlns:xlink="http://www.w3.org/1999/xlink" 
	 viewBox="0 0 512 512" xml:space="preserve">
<g>
	<g>
		<path d="M455.115,128.374c-3.668-43.603-40.328-77.961-84.863-77.961c-7.653,0-15.129,0.992-22.36,2.96
			c-7.77-13.633-18.493-25.383-31.562-34.475C298.561,6.535,277.692,0,255.979,0c-21.71,0-42.575,6.533-60.342,18.891
			c-13.07,9.092-23.795,20.839-31.565,34.471c-7.218-1.96-14.683-2.949-22.323-2.949c-44.535,0-81.195,34.358-84.862,77.961
			c-30.8,7.01-53.861,34.621-53.861,67.513c0,38.175,31.057,69.233,69.233,69.233c4.32,0,8.631-0.41,12.865-1.211
			c6.674,22.037,21.748,40.374,41.36,51.439l42.925,73.995L205.875,512h105.486l31.387-122.925l42.771-73.727
			c19.611-11.065,34.686-29.402,41.359-51.439c4.234,0.801,8.545,1.211,12.865,1.211c38.175,0,69.233-31.058,69.233-69.233
			C508.975,162.995,485.915,135.384,455.115,128.374z M313.452,377.107l-26.439,103.546H229.26l-30.866-103.815l-29.081-50.127
			c0.129,0.001,0.256,0.008,0.385,0.008c11.056,0,21.809-2.026,31.88-5.93l35.443,68.613h41.357l32.957-68.26
			c9.806,3.675,20.246,5.576,30.97,5.576c0.13,0,0.256-0.007,0.385-0.008L313.452,377.107z M238.696,324.344
			c5.654,1.075,11.433,1.629,17.283,1.629c6.504,0,12.925-0.681,19.183-2.009l-16.46,34.092h-2.591L238.696,324.344z
			 M439.743,233.774c-6.219,0-12.15-1.464-17.627-4.352l-21.335-11.247l-1.614,24.063c-1.998,29.795-26.975,53.134-56.864,53.134
			c-12.265,0-23.953-3.84-33.8-11.105l-8.989-6.633l-9.202,6.334c-9.309,6.406-20.088,10.029-31.341,10.576v-0.268
			c-32.914,0-59.693-26.778-59.693-59.693c0-14.703,5.392-28.828,15.18-39.774l-23.365-20.897
			c-14.937,16.701-23.162,38.247-23.162,60.671c0,21.835,7.73,41.898,20.593,57.601c-5.99,2.097-12.327,3.187-18.828,3.187
			c-29.889,0-54.867-23.339-56.864-53.134l-1.614-24.063l-21.334,11.247c-5.477,2.888-11.408,4.352-17.627,4.352
			c-20.89,0-37.886-16.996-37.886-37.886c0-20.826,16.89-37.78,37.691-37.886c0.127,0.003,0.255,0.006,0.383,0.007l17.424,0.16
			l-1.678-17.343c-0.172-1.78-0.26-3.546-0.26-5.248c0-29.675,24.142-53.818,53.817-53.818c8.217,0,16.102,1.802,23.434,5.356
			l15.265,7.399l6.17-15.801c11.242-28.775,38.467-47.367,69.365-47.367c30.904,0,58.132,18.599,69.366,47.383l6.172,15.815
			l15.272-7.414c7.342-3.564,15.237-5.371,23.462-5.371c29.675,0,53.819,24.142,53.819,53.818c0,1.694-0.088,3.462-0.26,5.256
			l-1.671,17.336l17.415-0.16c0.126-0.001,0.252-0.004,0.381-0.007c20.803,0.103,37.693,17.059,37.693,37.886
			C477.628,216.778,460.633,233.774,439.743,233.774z"/>
	</g>
</g>
</svg>